<svg width="18" height="17" viewBox="0 0 18 17" fill="none" xmlns="http://www.w3.org/2000/svg">
<path d="M6.25971 4.86366C5.6807 4.86366 5.18855 4.661 4.78325 4.2557C4.37794 3.8504 4.17529 3.35824 4.17529 2.77924C4.17529 2.20024 4.37794 1.70808 4.78325 1.30278C5.18855 0.897476 5.6807 0.694824 6.25971 0.694824C6.69975 0.694824 7.09926 0.825216 7.45825 1.086C7.81723 1.34678 8.07778 1.67959 8.2399 2.08443L13.2078 2.08443C13.4046 2.08443 13.5698 2.15114 13.7032 2.28454C13.8366 2.41794 13.903 2.58284 13.9026 2.77924C13.9026 2.96452 13.8185 3.09491 13.6504 3.17042C13.4822 3.24592 13.3347 3.34713 13.2078 3.47404V4.16885C13.2078 4.36571 13.1411 4.53084 13.0077 4.66425C12.8743 4.79765 12.7094 4.86412 12.513 4.86366C12.3166 4.86319 12.1517 4.79649 12.0183 4.66355C11.8849 4.53061 11.8181 4.36571 11.8181 4.16885V3.47404H8.2399C8.07778 3.87935 7.81723 4.21239 7.45825 4.47317C7.09926 4.73396 6.69975 4.86412 6.25971 4.86366ZM6.25971 3.47404C6.45657 3.47404 6.6217 3.40734 6.7551 3.27394C6.88851 3.14054 6.95498 2.97564 6.95451 2.77924C6.95405 2.58284 6.88735 2.41794 6.75441 2.28454C6.62147 2.15114 6.45657 2.08443 6.25971 2.08443C6.06285 2.08443 5.89795 2.15114 5.76501 2.28454C5.63207 2.41794 5.56537 2.58284 5.5649 2.77924C5.56444 2.97564 5.63114 3.14077 5.76501 3.27464C5.89887 3.4085 6.06377 3.47497 6.25971 3.47404ZM6.95451 12.1591C7.15138 12.1591 7.31651 12.0924 7.44991 11.959C7.58331 11.8256 7.64978 11.6607 7.64932 11.4643C7.64886 11.2679 7.58215 11.103 7.44921 10.9696C7.31628 10.8362 7.15138 10.7695 6.95451 10.7695C6.75765 10.7695 6.59275 10.8362 6.45981 10.9696C6.32687 11.103 6.26017 11.2679 6.25971 11.4643C6.25925 11.6607 6.32595 11.8258 6.45981 11.9597C6.59368 12.0936 6.75858 12.16 6.95451 12.1591ZM11.1233 12.1591C11.3202 12.1591 11.4853 12.0924 11.6187 11.959C11.7521 11.8256 11.8186 11.6607 11.8181 11.4643C11.8177 11.2679 11.751 11.103 11.618 10.9696C11.4851 10.8362 11.3202 10.7695 11.1233 10.7695C10.9265 10.7695 10.7616 10.8362 10.6286 10.9696C10.4957 11.103 10.429 11.2679 10.4285 11.4643C10.4281 11.6607 10.4948 11.8258 10.6286 11.9597C10.7625 12.0936 10.9274 12.16 11.1233 12.1591ZM5.5649 13.8961V14.5909C5.5649 14.7878 5.4982 14.9529 5.3648 15.0863C5.2314 15.2197 5.0665 15.2862 4.8701 15.2857C4.6737 15.2853 4.5088 15.2186 4.3754 15.0856C4.24199 14.9527 4.17529 14.7878 4.17529 14.5909V10.37C4.17529 10.2889 4.18108 10.2109 4.19266 10.1358C4.20424 10.0608 4.22161 9.98831 4.24477 9.91836L5.18276 7.19125C5.2754 6.91333 5.44331 6.68752 5.68649 6.51382C5.92968 6.34012 6.20181 6.25327 6.50289 6.25327L11.575 6.25327C11.876 6.25327 12.1482 6.34012 12.3914 6.51382C12.6345 6.68752 12.8025 6.91333 12.8951 7.19125L13.8331 9.91836C13.8562 9.98784 13.8736 10.0603 13.8852 10.1358C13.8968 10.2113 13.9026 10.2894 13.9026 10.37V14.5909C13.9026 14.7878 13.8361 14.9529 13.7032 15.0863C13.5702 15.2197 13.4051 15.2862 13.2078 15.2857C13.0104 15.2853 12.8455 15.2186 12.7131 15.0856C12.5806 14.9527 12.5139 14.7878 12.513 14.5909V13.8961H5.5649ZM6.01653 9.03249H12.0613L11.575 7.64288L6.50289 7.64288L6.01653 9.03249ZM5.5649 12.5065H12.513V10.4221H5.5649V12.5065Z" fill="url(#paint0_linear_36_10289)"/>
<defs>
<linearGradient id="paint0_linear_36_10289" x1="4.17529" y1="0.694824" x2="16.4408" y2="14.3414" gradientUnits="userSpaceOnUse">
<stop stop-color="#F9B12C"/>
<stop offset="1" stop-color="#EA7717"/>
</linearGradient>
</defs>
</svg>
