<svg width="17" height="17" viewBox="0 0 17 17" fill="none" xmlns="http://www.w3.org/2000/svg">
<path d="M14.6405 9.14033L13.69 6.28884C13.5522 5.87369 13.287 5.51254 12.9321 5.25672C12.5772 5.00089 12.1508 4.86341 11.7133 4.8638H5.37809C4.94063 4.86341 4.51418 5.00089 4.15932 5.25672C3.80446 5.51254 3.53925 5.87369 3.40137 6.28884L2.45088 9.14033C2.19812 9.24608 1.98227 9.4242 1.83046 9.65229C1.67865 9.88038 1.59766 10.1483 1.59766 10.4222V12.5067C1.59766 13.0194 1.87836 13.4627 2.29246 13.7038V14.5911C2.29246 14.7753 2.36566 14.9521 2.49597 15.0824C2.62627 15.2127 2.80299 15.2859 2.98727 15.2859H3.68207C3.86635 15.2859 4.04307 15.2127 4.17337 15.0824C4.30367 14.9521 4.37688 14.7753 4.37688 14.5911V13.8963H12.7145V14.5911C12.7145 14.7753 12.7877 14.9521 12.918 15.0824C13.0483 15.2127 13.2251 15.2859 13.4093 15.2859H14.1041C14.2884 15.2859 14.4651 15.2127 14.5955 15.0824C14.7258 14.9521 14.799 14.7753 14.799 14.5911V13.7038C15.0098 13.5829 15.185 13.4086 15.3069 13.1984C15.4289 12.9883 15.4934 12.7497 15.4938 12.5067V10.4222C15.4938 9.84486 15.1415 9.35085 14.6405 9.14033ZM5.37809 6.25341L11.7126 6.25341C11.8585 6.25337 12.0007 6.29926 12.1191 6.38456C12.2374 6.46986 12.3259 6.59025 12.372 6.72866L13.1405 9.03263H3.95096L4.71872 6.72866C4.81391 6.44448 5.07932 6.25341 5.37809 6.25341ZM4.02947 12.5067C3.89256 12.5066 3.757 12.4796 3.63053 12.4272C3.50406 12.3747 3.38916 12.2979 3.29238 12.2011C3.09693 12.0055 2.98717 11.7403 2.98727 11.4638C2.98736 11.1873 3.09729 10.9221 3.29287 10.7267C3.48845 10.5312 3.75367 10.4215 4.03017 10.4215C4.30667 10.4216 4.57181 10.5316 4.76727 10.7271C4.96272 10.9227 5.07247 11.1879 5.07238 11.4644C5.07228 11.741 4.96236 12.0061 4.76677 12.2015C4.57119 12.397 4.30598 12.5067 4.02947 12.5067ZM13.0619 12.5067C12.7854 12.5066 12.5203 12.3966 12.3248 12.2011C12.1294 12.0055 12.0196 11.7403 12.0197 11.4638C12.0198 11.1873 12.1298 10.9221 12.3253 10.7267C12.5209 10.5312 12.7861 10.4215 13.0626 10.4215C13.3391 10.4216 13.6043 10.5316 13.7997 10.7271C13.9952 10.9227 14.1049 11.1879 14.1048 11.4644C14.1048 11.741 13.9948 12.0061 13.7992 12.2015C13.6037 12.397 13.3384 12.5067 13.0619 12.5067ZM6.46129 3.04202C6.46477 2.28607 5.74078 1.61697 5.4976 1.4134C5.47549 1.3946 5.44741 1.38428 5.41839 1.38428C5.38937 1.38428 5.36129 1.3946 5.33918 1.4134C5.09461 1.61559 4.3734 2.27287 4.37688 3.04133C4.37688 3.66318 4.84448 4.16899 5.41908 4.16899C5.99369 4.16899 6.46129 3.66318 6.46129 3.04202ZM9.58792 3.04202C9.59139 2.28607 8.8674 1.61628 8.62422 1.4134C8.60211 1.3946 8.57403 1.38428 8.54501 1.38428C8.51599 1.38428 8.48792 1.3946 8.46581 1.4134C8.22054 1.61559 7.49933 2.27357 7.5028 3.04202C7.5035 3.66318 7.9711 4.16899 8.54571 4.16899C9.12031 4.16899 9.58792 3.66318 9.58792 3.04202ZM12.7145 3.04202C12.718 2.28607 11.994 1.61628 11.7508 1.4134C11.7287 1.3946 11.7007 1.38428 11.6716 1.38428C11.6426 1.38428 11.6145 1.3946 11.5924 1.4134C11.3479 1.61559 10.6266 2.27287 10.6301 3.04133C10.6301 3.66318 11.0977 4.16899 11.6723 4.16899C12.2469 4.16899 12.7145 3.66318 12.7145 3.04202Z" fill="url(#paint0_linear_36_10281)"/>
<defs>
<linearGradient id="paint0_linear_36_10281" x1="1.59766" y1="1.38428" x2="11.963" y2="18.6762" gradientUnits="userSpaceOnUse">
<stop stop-color="#F9B12C"/>
<stop offset="1" stop-color="#EA7717"/>
</linearGradient>
</defs>
</svg>
