<svg width="29" height="22" viewBox="0 0 29 22" fill="none" xmlns="http://www.w3.org/2000/svg">
<path d="M9.91792 17.1982L25.8118 0.587974C26.1869 0.195991 26.6245 0 27.1246 0C27.6247 0 28.0623 0.195991 28.4374 0.587974C28.8125 0.979956 29 1.44576 29 1.98539C29 2.52502 28.8125 2.99017 28.4374 3.38085L11.2307 21.412C10.8556 21.804 10.418 22 9.91792 22C9.41782 22 8.98023 21.804 8.60515 21.412L0.540978 12.9844C0.1659 12.5924 -0.0141375 12.1273 0.000865563 11.589C0.0158687 11.0506 0.211534 10.5848 0.587862 10.1915C0.96419 9.79825 1.40991 9.60226 1.92501 9.60356C2.44012 9.60487 2.88521 9.80086 3.26029 10.1915L9.91792 17.1982Z" fill="url(#paint0_linear_37_728)"/>
<defs>
<linearGradient id="paint0_linear_37_728" x1="0" y1="0" x2="14.0133" y2="30.8283" gradientUnits="userSpaceOnUse">
<stop stop-color="#F9B12C"/>
<stop offset="1" stop-color="#EA7717"/>
</linearGradient>
</defs>
</svg>
