<svg width="19" height="18" viewBox="0 0 19 18" fill="none" xmlns="http://www.w3.org/2000/svg">
<g clip-path="url(#clip0_36_10283)">
<path d="M17.4124 4.12818C17.1734 3.93989 16.5325 3.78877 16.0527 3.67621L15.4034 3.58936V2.0198L15.7359 2.01459C16.0475 2.17266 16.4963 2.43182 16.5196 2.77922H17.7717C17.7484 2.08442 17.2207 1.64599 16.751 1.2979C16.4394 1.06687 16.0982 0.943545 15.4034 0.868854V0L14.7086 0V0.842104C14.0138 0.908805 13.7894 1.08181 13.4757 1.36425C13.0654 1.73354 12.8827 2.19697 12.8827 2.7549C12.8827 3.36633 13.0574 3.81552 13.4774 4.10317C13.7123 4.2661 14.0138 4.41757 14.7086 4.55792V6.25846C14.3612 6.19697 14.3605 6.2126 14.2379 6.06704C14.1198 5.92599 14.0875 5.55844 14.0472 5.55844H12.8048C12.8048 6.25325 12.9928 6.58606 13.4632 6.95674C13.8022 7.22389 14.0138 7.27114 14.7086 7.34131V7.99026H15.4034V7.35243C16.0982 7.28538 16.6885 7.10855 17.0279 6.81882C17.4684 6.44258 17.8286 5.96977 17.8286 5.40072C17.8283 4.84557 17.7838 4.42174 17.4124 4.12818ZM14.3675 3.16032C14.1653 3.05019 14.0875 2.88344 14.0875 2.66076C14.0875 2.41827 14.1545 2.22859 14.3595 2.0931C14.4675 2.02188 14.3612 1.97012 14.7086 1.93573V3.30449C14.3612 3.25169 14.4439 3.20375 14.3675 3.16032ZM15.8762 6.22441C15.8179 6.24456 15.4034 6.26054 15.4034 6.27479V4.82716C16.0982 4.88691 16.0447 4.95118 16.1601 5.02101C16.3411 5.13357 16.4321 5.29407 16.4321 5.49938C16.4318 5.85258 16.2466 6.09425 15.8762 6.22441ZM14.1945 10.4221H14.0023L11.8679 6.55722C11.7758 6.39012 11.5438 6.25325 11.3527 6.25325L4.87677 6.25325C4.6857 6.25325 4.45364 6.39012 4.36157 6.55722L2.22713 10.4221H2.03537C1.65288 10.4221 1.15991 10.7347 1.15991 11.1169L1.15991 14.5909C1.15991 14.9731 1.65288 15.2857 2.03537 15.2857H2.54952V16.3279C2.54952 16.9011 3.19917 17.3701 3.77238 17.3701H4.11978C4.693 17.3701 4.98134 16.9011 4.98134 16.3279V15.2857H10.8872V16.3279C10.8872 16.9011 11.5365 17.3701 12.11 17.3701H12.4574C13.0307 17.3701 13.319 16.9011 13.319 16.3279V15.2857H14.1945C14.5766 15.2857 14.7086 14.9731 14.7086 14.5909L14.7086 11.1169C14.7086 10.7347 14.5763 10.4221 14.1945 10.4221ZM3.25128 13.2013C3.02093 13.2013 2.80003 13.1098 2.63715 12.9469C2.47427 12.784 2.38277 12.5631 2.38277 12.3328C2.38277 12.1024 2.47427 11.8815 2.63715 11.7187C2.80003 11.5558 3.02093 11.4643 3.25128 11.4643C3.48162 11.4643 3.70253 11.5558 3.8654 11.7187C4.02828 11.8815 4.11978 12.1024 4.11978 12.3328C4.11978 12.5631 4.02828 12.784 3.8654 12.9469C3.70253 13.1098 3.48162 13.2013 3.25128 13.2013ZM3.94608 10.4221L5.3541 7.60638C5.43922 7.43511 5.66572 7.29545 5.85679 7.29545L10.373 7.29545C10.5641 7.29545 10.7903 7.43511 10.8757 7.60638L12.2837 10.4221H3.94608ZM12.9785 13.2013C12.7482 13.2013 12.5273 13.1098 12.3644 12.9469C12.2015 12.784 12.11 12.5631 12.11 12.3328C12.11 12.1024 12.2015 11.8815 12.3644 11.7187C12.5273 11.5558 12.7482 11.4643 12.9785 11.4643C13.2089 11.4643 13.4298 11.5558 13.5927 11.7187C13.7556 11.8815 13.8471 12.1024 13.8471 12.3328C13.8471 12.5631 13.7556 12.784 13.5927 12.9469C13.4298 13.1098 13.2089 13.2013 12.9785 13.2013Z" fill="url(#paint0_linear_36_10283)"/>
</g>
<defs>
<linearGradient id="paint0_linear_36_10283" x1="1.15991" y1="0" x2="14.3544" y2="21.1312" gradientUnits="userSpaceOnUse">
<stop stop-color="#F9B12C"/>
<stop offset="1" stop-color="#EA7717"/>
</linearGradient>
<clipPath id="clip0_36_10283">
<rect width="17.3701" height="17.3701" fill="white" transform="translate(0.8125)"/>
</clipPath>
</defs>
</svg>
