<svg width="30" height="30" viewBox="0 0 30 30" fill="none" xmlns="http://www.w3.org/2000/svg">
<path d="M5.06312 18.1533C5.3004 18.1533 5.52011 18.1974 5.72224 18.2855C5.92436 18.3737 6.10013 18.4927 6.24953 18.6425C6.39893 18.7923 6.52196 18.973 6.61863 19.1845C6.71531 19.3961 6.75925 19.6164 6.75046 19.8456C6.75046 20.0835 6.70652 20.3039 6.61863 20.5066C6.53075 20.7093 6.41211 20.8856 6.26271 21.0354C6.11331 21.1852 5.93315 21.3086 5.72224 21.4056C5.51132 21.5025 5.29161 21.5466 5.06312 21.5378C4.82584 21.5378 4.60613 21.4937 4.404 21.4056C4.20187 21.3174 4.02611 21.1985 3.87671 21.0486C3.72731 20.8988 3.60427 20.7181 3.5076 20.5066C3.41093 20.2951 3.36699 20.0747 3.37578 19.8456C3.37578 19.6076 3.41972 19.3872 3.5076 19.1845C3.59548 18.9818 3.71413 18.8055 3.86353 18.6557C4.01293 18.5059 4.19308 18.3825 4.404 18.2855C4.61492 18.1886 4.83462 18.1445 5.06312 18.1533ZM21.9365 18.1533C22.1738 18.1533 22.3935 18.1974 22.5956 18.2855C22.7978 18.3737 22.9735 18.4927 23.1229 18.6425C23.2723 18.7923 23.3954 18.973 23.492 19.1845C23.5887 19.3961 23.6326 19.6164 23.6239 19.8456C23.6239 20.0835 23.5799 20.3039 23.492 20.5066C23.4042 20.7093 23.2855 20.8856 23.1361 21.0354C22.9867 21.1852 22.8066 21.3086 22.5956 21.4056C22.3847 21.5025 22.165 21.5466 21.9365 21.5378C21.6992 21.5378 21.4795 21.4937 21.2774 21.4056C21.0753 21.3174 20.8995 21.1985 20.7501 21.0486C20.6007 20.8988 20.4777 20.7181 20.381 20.5066C20.2843 20.2951 20.2404 20.0747 20.2492 19.8456C20.2492 19.6076 20.2931 19.3872 20.381 19.1845C20.4689 18.9818 20.5875 18.8055 20.7369 18.6557C20.8863 18.5059 21.0665 18.3825 21.2774 18.2855C21.4883 18.1886 21.708 18.1445 21.9365 18.1533ZM26.5108 14.7689L25.6408 15.6282C25.6583 15.6723 25.7023 15.8045 25.7726 16.0248C25.8429 16.2452 25.9264 16.5052 26.023 16.8048C26.1197 17.1045 26.2296 17.4262 26.3526 17.7699C26.4756 18.1137 26.5811 18.4266 26.669 18.7086C26.7569 18.9906 26.836 19.2286 26.9063 19.4225C26.9766 19.6164 27.0073 19.7134 26.9985 19.7134V28.3067C26.9985 28.5446 26.9546 28.765 26.8667 28.9677C26.7788 29.1704 26.6602 29.3467 26.5108 29.4965C26.3614 29.6464 26.1812 29.7697 25.9703 29.8667C25.7594 29.9636 25.5397 30.0077 25.3112 29.9989H23.6239C23.3866 29.9989 23.1669 29.9548 22.9647 29.8667C22.7626 29.7786 22.5868 29.6596 22.4374 29.5097C22.288 29.3599 22.165 29.1792 22.0683 28.9677C21.9717 28.7562 21.9277 28.5358 21.9365 28.3067H5.06312C5.06312 28.5446 5.01918 28.765 4.93129 28.9677C4.84341 29.1704 4.72477 29.3467 4.57537 29.4965C4.42597 29.6464 4.24581 29.7697 4.0349 29.8667C3.82398 29.9636 3.60427 30.0077 3.37578 29.9989H1.68844C1.45116 29.9989 1.23145 29.9548 1.02932 29.8667C0.827192 29.7786 0.651427 29.6596 0.502028 29.5097C0.352628 29.3599 0.229592 29.1792 0.132922 28.9677C0.0362514 28.7562 -0.0076897 28.5358 0.00109853 28.3067V19.7134L0.0933749 19.4357L0.330657 18.7218L0.647033 17.7699C0.76128 17.4262 0.866739 17.1045 0.96341 16.8048C1.06008 16.5052 1.14796 16.2452 1.22706 16.0248C1.30615 15.8045 1.35009 15.6723 1.35888 15.6282L0.488845 14.7689H0.00109853V13.0767H1.20069L1.95209 13.8435L2.92758 10.8953C3.06819 10.4634 3.27032 10.0712 3.53397 9.71866C3.79761 9.36612 4.1096 9.06205 4.46991 8.80645C4.83023 8.55085 5.21252 8.35255 5.61678 8.21153C6.02104 8.07051 6.46045 8 6.93501 8H20.0646C20.5216 8 20.9566 8.07051 21.3697 8.21153C21.7827 8.35255 22.1694 8.54645 22.5297 8.79323C22.89 9.04001 23.1976 9.34408 23.4525 9.70544C23.7073 10.0668 23.9139 10.4634 24.0721 10.8953L25.0476 13.8435L25.7989 13.0767H26.9985V14.7689H26.5108ZM6.93501 9.69222C6.38135 9.69222 5.88921 9.85087 5.45859 10.1682C5.02797 10.4855 4.72038 10.9041 4.53582 11.4241L3.41533 14.7689H23.5843L22.4638 11.4241C22.288 10.9041 21.9849 10.4855 21.5542 10.1682C21.1236 9.85087 20.6271 9.69222 20.0646 9.69222H6.93501ZM18.5618 25.9666L17.1909 23.23H9.80876L8.4378 25.9666V26.6145H18.5618V25.9666ZM25.3112 26.6145V19.9778L25.2321 19.7398C25.1794 19.5812 25.1135 19.374 25.0344 19.1184C24.9553 18.8628 24.863 18.594 24.7575 18.312C24.6521 18.0299 24.5598 17.7523 24.4807 17.4791C24.4016 17.2059 24.3269 16.9811 24.2566 16.8048C24.1863 16.6286 24.1468 16.514 24.138 16.4611H2.86167C2.84409 16.5052 2.80454 16.6198 2.74303 16.8048C2.68151 16.9899 2.60681 17.2103 2.51893 17.4659C2.43104 17.7215 2.33877 17.9991 2.2421 18.2988C2.14543 18.5984 2.05754 18.8717 1.97845 19.1184C1.89936 19.3652 1.82905 19.5679 1.76753 19.7266C1.70601 19.8852 1.67965 19.969 1.68844 19.9778V26.6145H6.75046V25.57L8.75417 21.5378H18.2455L20.2492 25.57V26.6145H25.3112Z" fill="url(#paint0_linear_36_9898)"/>
<defs>
<linearGradient id="paint0_linear_36_9898" x1="0" y1="8" x2="14.6655" y2="38.038" gradientUnits="userSpaceOnUse">
<stop stop-color="#F9B12C"/>
<stop offset="1" stop-color="#EA7717"/>
</linearGradient>
</defs>
</svg>
