<svg width="18" height="17" viewBox="0 0 18 17" fill="none" xmlns="http://www.w3.org/2000/svg">
<path d="M9.58658 7.64291H7.3632V4.86369H9.58658C9.95513 4.86369 10.3086 5.0101 10.5692 5.2707C10.8298 5.5313 10.9762 5.88476 10.9762 6.2533C10.9762 6.62185 10.8298 6.9753 10.5692 7.23591C10.3086 7.49651 9.95513 7.64291 9.58658 7.64291ZM9.44762 2.08447L4.58398 2.08447L4.58398 14.591H7.3632L7.3632 10.4221H9.44762C10.5533 10.4221 11.6136 9.98292 12.3954 9.20111C13.1772 8.4193 13.6165 7.35895 13.6165 6.2533C13.6165 3.94655 11.7474 2.08447 9.44762 2.08447Z" fill="url(#paint0_linear_36_10285)"/>
<defs>
<linearGradient id="paint0_linear_36_10285" x1="4.58398" y1="2.08447" x2="14.9754" y2="14.6095" gradientUnits="userSpaceOnUse">
<stop stop-color="#F9B12C"/>
<stop offset="1" stop-color="#EA7717"/>
</linearGradient>
</defs>
</svg>
