<svg width="18" height="17" viewBox="0 0 18 17" fill="none" xmlns="http://www.w3.org/2000/svg">
<path d="M5.11981 3.47412C4.66123 3.47412 4.27214 3.76594 4.13318 4.16893L2.68799 8.33776V13.8962C2.68799 14.0805 2.76119 14.2572 2.89149 14.3875C3.02179 14.5178 3.19852 14.591 3.38279 14.591H4.0776C4.26187 14.591 4.4386 14.5178 4.5689 14.3875C4.6992 14.2572 4.7724 14.0805 4.7724 13.8962V13.2014H8.45487C8.31849 12.7507 8.24828 12.2826 8.24643 11.8118C8.24755 10.9714 8.46639 10.1457 8.88162 9.41509C9.29684 8.68449 9.89429 8.07393 10.6157 7.64295L4.0776 7.64295L5.11981 4.51633L12.7627 4.51633L13.5825 6.96899C14.0084 7.01339 14.4266 7.11385 14.8262 7.26776L13.7493 4.16893C13.6103 3.76594 13.2212 3.47412 12.7627 3.47412L5.11981 3.47412ZM12.4153 8.33776C12.3728 8.33697 12.3314 8.35116 12.2984 8.37784C12.2654 8.40452 12.2428 8.44199 12.2346 8.48367L12.1026 9.40081C11.8942 9.49113 11.6927 9.6023 11.512 9.72737L10.6505 9.37996C10.574 9.37996 10.4837 9.37996 10.4351 9.47029L9.74026 10.6723C9.69857 10.7487 9.71247 10.8391 9.78195 10.8946L10.5184 11.4644C10.4908 11.6952 10.4908 11.9284 10.5184 12.1592L9.78195 12.7289C9.75073 12.7557 9.72958 12.7923 9.722 12.8328C9.71442 12.8732 9.72086 12.915 9.74026 12.9513L10.4351 14.1533C10.4768 14.2436 10.5671 14.2436 10.6505 14.2436L11.512 13.8962C11.6927 14.0213 11.8872 14.1394 12.1026 14.2228L12.2346 15.1399C12.2485 15.2233 12.318 15.2858 12.4153 15.2858H13.8049C13.8813 15.2858 13.9577 15.2233 13.9716 15.1399L14.1036 14.2228C14.3121 14.1324 14.4997 14.0213 14.6873 13.8962L15.5419 14.2436C15.6322 14.2436 15.7225 14.2436 15.7712 14.1533L16.466 12.9513C16.4854 12.915 16.4918 12.8732 16.4842 12.8328C16.4767 12.7923 16.4555 12.7557 16.4243 12.7289L15.6808 12.1592C15.6947 12.0411 15.7086 11.9299 15.7086 11.8118C15.7086 11.6937 15.7017 11.5825 15.6808 11.4644L16.4173 10.8946C16.4486 10.8679 16.4697 10.8312 16.4773 10.7908C16.4849 10.7504 16.4784 10.7086 16.459 10.6723L15.7642 9.47029C15.7225 9.37996 15.6322 9.37996 15.5419 9.37996L14.6873 9.72737C14.4997 9.6023 14.3121 9.48419 14.0967 9.40081L13.9647 8.48367C13.9603 8.44409 13.9417 8.40746 13.9123 8.38061C13.8829 8.35376 13.8447 8.33853 13.8049 8.33776H12.4153ZM5.11981 9.03256C5.39622 9.03256 5.66131 9.14237 5.85676 9.33782C6.05221 9.53327 6.16201 9.79836 6.16201 10.0748C6.16201 10.3512 6.05221 10.6163 5.85676 10.8117C5.66131 11.0072 5.39622 11.117 5.11981 11.117C4.8434 11.117 4.57831 11.0072 4.38285 10.8117C4.1874 10.6163 4.0776 10.3512 4.0776 10.0748C4.0776 9.79836 4.1874 9.53327 4.38285 9.33782C4.57831 9.14237 4.8434 9.03256 5.11981 9.03256ZM13.1101 10.7696C13.6868 10.7696 14.1523 11.2351 14.1523 11.8118C14.1523 12.3885 13.6868 12.854 13.1101 12.854C12.5264 12.854 12.0679 12.3885 12.0679 11.8118C12.0679 11.2351 12.5334 10.7696 13.1101 10.7696Z" fill="url(#paint0_linear_36_10279)"/>
<defs>
<linearGradient id="paint0_linear_36_10279" x1="2.68799" y1="3.47412" x2="10.7978" y2="19.2862" gradientUnits="userSpaceOnUse">
<stop stop-color="#F9B12C"/>
<stop offset="1" stop-color="#EA7717"/>
</linearGradient>
</defs>
</svg>
