<svg width="24" height="24" viewBox="0 0 24 24" fill="none" xmlns="http://www.w3.org/2000/svg">
<path d="M9.44078 5.97259C9.65258 6.18861 9.77121 6.47907 9.77121 6.78159C9.77121 7.08412 9.65258 7.37458 9.44078 7.59059L7.5922 9.43922C7.3762 9.65102 7.08574 9.76966 6.78322 9.76966C6.4807 9.76966 6.19025 9.65102 5.97424 9.43922L2.86521 6.33133C2.26122 5.72855 1.24603 5.925 1.10083 6.76573C0.9111 7.86606 0.989921 8.99594 1.33059 10.0593C1.67126 11.1226 2.26369 12.0879 3.05751 12.8731C3.85132 13.6583 4.82303 14.2402 5.88999 14.5692C6.95695 14.8983 8.0876 14.9648 9.18576 14.763C10.1863 14.58 11.2686 14.7362 11.9873 15.4537L18.7788 22.2466C19.0048 22.4818 19.2755 22.6696 19.575 22.799C19.8744 22.9283 20.1967 22.9966 20.5229 22.9999C20.8491 23.0031 21.1726 22.9413 21.4746 22.818C21.7766 22.6946 22.051 22.5123 22.2817 22.2816C22.5123 22.051 22.6947 21.7766 22.818 21.4746C22.9413 21.1726 23.0031 20.849 22.9999 20.5228C22.9966 20.1966 22.9283 19.8744 22.799 19.5749C22.6696 19.2754 22.4818 19.0047 22.2466 18.7787L15.4538 11.987C14.7364 11.2683 14.5802 10.1848 14.7632 9.18541C14.9644 8.08731 14.8975 6.95688 14.5682 5.89017C14.239 4.82345 13.6571 3.85198 12.8721 3.05828C12.087 2.26459 11.122 1.67213 10.059 1.33125C8.99595 0.990364 7.86634 0.911128 6.76614 1.10027C5.92543 1.2467 5.72898 2.2607 6.33175 2.8647L9.44078 5.97259Z" stroke="url(#paint0_linear_36_8993)" stroke-width="1.5" stroke-linecap="round" stroke-linejoin="round"/>
<defs>
<linearGradient id="paint0_linear_36_8993" x1="1" y1="1" x2="17.4006" y2="28.3711" gradientUnits="userSpaceOnUse">
<stop stop-color="#F9B12C"/>
<stop offset="1" stop-color="#EA7717"/>
</linearGradient>
</defs>
</svg>
