<svg width="18" height="18" viewBox="0 0 18 18" fill="none" xmlns="http://www.w3.org/2000/svg">
<g clip-path="url(#clip0_36_10287)">
<path d="M14.2631 1.38939L7.6892 1.38939C7.16705 0.694587 6.3114 0.0859375 5.34353 0.0859375C3.75347 0.0859375 2.46461 1.32825 2.46461 2.91831C2.46461 4.50872 3.75347 5.71039 5.34353 5.71039C6.55284 5.71039 7.58741 4.86342 8.01436 3.82121H8.97146L9.66522 3.1271L10.3586 3.82121H10.7912L11.4846 3.1271L12.1783 3.82121H12.6105L13.3043 3.1271L13.998 3.82121H14.2631V3.91883L14.2026 3.93307L15.5714 2.5914L14.2631 1.38939ZM4.4118 3.68572C4.19062 3.68558 3.97856 3.59759 3.82227 3.4411C3.66597 3.28461 3.57824 3.07244 3.57838 2.85126C3.57852 2.63009 3.66651 2.41803 3.823 2.26173C3.9795 2.10543 4.19167 2.0177 4.41284 2.01784C4.52236 2.01791 4.63078 2.03955 4.73194 2.08152C4.83309 2.1235 4.92498 2.18498 5.00237 2.26247C5.07976 2.33995 5.14113 2.43193 5.18298 2.53313C5.22483 2.63433 5.24633 2.74279 5.24626 2.8523C5.24619 2.96182 5.22455 3.07025 5.18258 3.1714C5.14061 3.27255 5.07912 3.36445 5.00164 3.44184C4.92415 3.51923 4.83218 3.5806 4.73097 3.62244C4.62977 3.66429 4.52131 3.68579 4.4118 3.68572ZM14.9579 10.4219H14.7658L12.6313 6.55701C12.5393 6.3899 12.3072 6.25303 12.1161 6.25303L5.64056 6.25303C5.44949 6.25303 5.21743 6.3899 5.12536 6.55701L2.99058 10.4219H2.79881C2.41667 10.4219 2.104 10.7345 2.104 11.1167V14.5907C2.104 14.9728 2.41667 15.2855 2.79881 15.2855H3.49361V16.3277C3.49361 16.9009 3.96261 17.3699 4.53582 17.3699H4.88322C5.45644 17.3699 5.92543 16.9009 5.92543 16.3277V15.2855H11.8313V16.3277C11.8313 16.9009 12.3003 17.3699 12.8735 17.3699H13.2209C13.7941 17.3699 14.2631 16.9009 14.2631 16.3277V15.2855H14.9579C15.34 15.2855 15.6527 14.9728 15.6527 14.5907V11.1167C15.6527 10.7345 15.34 10.4219 14.9579 10.4219ZM4.01472 13.2011C3.78438 13.2011 3.56347 13.1096 3.40059 12.9467C3.23771 12.7838 3.14621 12.5629 3.14621 12.3326C3.14621 12.1022 3.23771 11.8813 3.40059 11.7184C3.56347 11.5556 3.78438 11.4641 4.01472 11.4641C4.24506 11.4641 4.46597 11.5556 4.62884 11.7184C4.79172 11.8813 4.88322 12.1022 4.88322 12.3326C4.88322 12.5629 4.79172 12.7838 4.62884 12.9467C4.46597 13.1096 4.24506 13.2011 4.01472 13.2011ZM4.70952 10.4219L6.11755 7.60616C6.20301 7.43489 6.42917 7.29524 6.62024 7.29524L11.1365 7.29524C11.3275 7.29524 11.5537 7.43489 11.6392 7.60616L13.0472 10.4219H4.70952ZM13.742 13.2011C13.5116 13.2011 13.2907 13.1096 13.1279 12.9467C12.965 12.7838 12.8735 12.5629 12.8735 12.3326C12.8735 12.1022 12.965 11.8813 13.1279 11.7184C13.2907 11.5556 13.5116 11.4641 13.742 11.4641C13.9723 11.4641 14.1932 11.5556 14.3561 11.7184C14.519 11.8813 14.6105 12.1022 14.6105 12.3326C14.6105 12.5629 14.519 12.7838 14.3561 12.9467C14.1932 13.1096 13.9723 13.2011 13.742 13.2011Z" fill="url(#paint0_linear_36_10287)"/>
</g>
<defs>
<linearGradient id="paint0_linear_36_10287" x1="2.104" y1="0.0859375" x2="16.2041" y2="18.5322" gradientUnits="userSpaceOnUse">
<stop stop-color="#F9B12C"/>
<stop offset="1" stop-color="#EA7717"/>
</linearGradient>
<clipPath id="clip0_36_10287">
<rect width="17.3701" height="17.3701" fill="white" transform="translate(0.0195312)"/>
</clipPath>
</defs>
</svg>
