<svg width="18" height="17" viewBox="0 0 18 17" fill="none" xmlns="http://www.w3.org/2000/svg">
<path d="M8.96077 8.33772V2.08447L12.3736 3.41433C12.5681 3.49008 12.7391 3.61601 12.8691 3.77931C12.9991 3.9426 13.0835 4.13743 13.1137 4.34395C13.1439 4.55047 13.1189 4.76131 13.0411 4.95501C12.9634 5.1487 12.8357 5.31834 12.671 5.44663L8.96077 8.33772ZM8.96077 8.33772H15.214L13.8842 11.7506C13.8084 11.9451 13.6825 12.116 13.5192 12.246C13.3559 12.376 13.1611 12.4604 12.9545 12.4906C12.748 12.5209 12.5372 12.4958 12.3435 12.4181C12.1498 12.3403 11.9801 12.2126 11.8518 12.048L8.96077 8.33772ZM8.96077 8.33772H2.70752L4.03738 4.92484C4.11313 4.73035 4.23906 4.5594 4.40236 4.42941C4.56565 4.29941 4.76048 4.21501 4.967 4.18479C5.17352 4.15457 5.38436 4.17961 5.57806 4.25737C5.77175 4.33513 5.94138 4.46283 6.06968 4.62746L8.96077 8.33772ZM8.96077 8.33772V14.591L5.54788 13.2611C5.35339 13.1854 5.18245 13.0594 5.05245 12.8961C4.92246 12.7328 4.83805 12.538 4.80783 12.3315C4.77762 12.125 4.80266 11.9141 4.88042 11.7204C4.95818 11.5267 5.08587 11.3571 5.25051 11.2288L8.96077 8.33772Z" stroke="url(#paint0_linear_36_10275)" stroke-width="1.38961" stroke-linecap="round" stroke-linejoin="round"/>
<defs>
<linearGradient id="paint0_linear_36_10275" x1="2.70752" y1="2.08447" x2="12.0309" y2="17.6443" gradientUnits="userSpaceOnUse">
<stop stop-color="#F9B12C"/>
<stop offset="1" stop-color="#EA7717"/>
</linearGradient>
</defs>
</svg>
