<svg width="17" height="17" viewBox="0 0 17 17" fill="none" xmlns="http://www.w3.org/2000/svg">
<path d="M2.51039 13.8959C2.39134 13.8959 2.2906 13.8542 2.20815 13.7708C2.1257 13.6884 2.08447 13.5876 2.08447 13.4686L2.08447 8.63482C2.08447 8.57183 2.08818 8.5086 2.09559 8.44514C2.10254 8.38168 2.11759 8.31961 2.14075 8.25893L3.46366 4.51602C3.49747 4.40578 3.56255 4.32008 3.6589 4.25894C3.75571 4.19872 3.86341 4.16862 3.98199 4.16862H5.9865C6.0847 4.16862 6.16715 4.20197 6.23385 4.26867C6.30055 4.33537 6.3339 4.41805 6.3339 4.51671C6.3339 4.61538 6.30055 4.69783 6.23385 4.76406C6.16715 4.8303 6.0847 4.86342 5.9865 4.86342H4.09176L3.06832 7.74964H8.2071C8.36042 7.74964 8.50679 7.77975 8.64621 7.83997C8.78517 7.90111 8.90514 7.98194 9.00612 8.08245L10.3728 9.44913C10.3552 9.47971 10.339 9.51097 10.3242 9.54293C10.3093 9.57489 10.3063 9.61403 10.3151 9.66036C10.235 9.77152 10.1938 9.89288 10.1915 10.0244C10.1896 10.156 10.222 10.2706 10.2887 10.3684C10.342 10.5198 10.4414 10.6308 10.5868 10.7012C10.7318 10.7716 10.8867 10.7813 11.0516 10.7304C11.2323 10.7359 11.3879 10.6903 11.5185 10.5935C11.6492 10.4967 11.7291 10.3714 11.7582 10.2176C11.9018 10.2593 12.044 10.2831 12.1849 10.2892C12.3252 10.2956 12.4672 10.2873 12.6108 10.2641C12.7622 10.2303 12.8984 10.2565 13.0193 10.3427C13.1402 10.4288 13.2009 10.5465 13.2014 10.6956V13.4679C13.2014 13.5869 13.1597 13.6879 13.0763 13.7708C12.9929 13.8542 12.8915 13.8959 12.772 13.8959C12.6529 13.8959 12.5522 13.8542 12.4697 13.7708C12.3873 13.6879 12.346 13.5869 12.346 13.4679V12.5063H2.93978V13.4686C2.93978 13.5872 2.89809 13.6879 2.81471 13.7708C2.73134 13.8542 2.62989 13.8959 2.51039 13.8959ZM4.46626 10.9027C4.68212 10.9027 4.86462 10.8272 5.01377 10.6762C5.16339 10.5247 5.23819 10.341 5.23819 10.1252C5.23819 9.90886 5.16246 9.7259 5.01099 9.57628C4.85952 9.4276 4.67586 9.35325 4.46001 9.35325C4.2437 9.35325 4.06073 9.42875 3.91112 9.57976C3.76243 9.73123 3.68808 9.91512 3.68808 10.1314C3.68808 10.3473 3.76358 10.5298 3.91459 10.6789C4.06606 10.8281 4.24995 10.9027 4.46626 10.9027ZM10.4214 3.98171C10.565 3.98171 10.6857 3.93308 10.7834 3.8358C10.8807 3.73853 10.9293 3.6181 10.9293 3.4745C10.9293 3.33091 10.8807 3.21025 10.7834 3.11251C10.6866 3.01524 10.5662 2.9666 10.4221 2.9666C10.2781 2.9666 10.1576 3.01524 10.0608 3.11251C9.96356 3.20932 9.91493 3.32975 9.91493 3.47381C9.91493 3.61787 9.96356 3.7383 10.0608 3.83511C10.1576 3.93238 10.2781 3.98102 10.4221 3.98102M11.6464 8.37219L8.23628 4.96208C8.16355 4.88936 8.10426 4.80089 8.05841 4.69667C8.01255 4.59245 7.98985 4.48545 7.99032 4.37567V1.8841C7.99032 1.6386 8.07207 1.4371 8.23558 1.27962C8.39956 1.1212 8.5985 1.04199 8.83242 1.04199L11.324 1.04199C11.4333 1.04199 11.5403 1.06469 11.645 1.11008C11.7497 1.15548 11.8381 1.21477 11.9104 1.28795L15.3205 4.69806C15.4905 4.86805 15.5755 5.06723 15.5755 5.29559C15.5755 5.52441 15.4905 5.72359 15.3205 5.89312L12.8421 8.37219C12.6717 8.54218 12.4723 8.62718 12.2439 8.62718C12.0156 8.62718 11.8164 8.54218 11.6464 8.37219Z" fill="url(#paint0_linear_36_10277)"/>
<defs>
<linearGradient id="paint0_linear_36_10277" x1="2.08447" y1="1.04199" x2="11.4423" y2="17.4334" gradientUnits="userSpaceOnUse">
<stop stop-color="#F9B12C"/>
<stop offset="1" stop-color="#EA7717"/>
</linearGradient>
</defs>
</svg>
